# xmcd CD database file
#
# Track frame offsets:
#	150
#	20911
#	39285
#	56188
#	76585
#	95073
#	108574
#	124365
#	140100
#	156780
#	176458
#	195949
#	213871
#	232991
#	250366
#
# Disc length: 3635 seconds
#
# Revision: 0
# Processed by: cddbd v1.5.1PL2 Copyright (c) Steve Scherf et al.
# Submitted via: Feurio! 1.68 - http://www.feurio.com
#
DISCID=cd0e310f
DTITLE=LeAnn Rimes - Sittin' On Top Of The World (edit)
DYEAR=1900
DGENRE=Country
TTITLE0=Le Ann Rimes - Commitment
TTITLE1=Le Ann Rimes - Looking Through Your Eyes
TTITLE2=Le Ann Rimes - Undeniable
TTITLE3=Le Ann Rimes - Feels Like Home
TTITLE4=Le Ann Rimes - Surrender
TTITLE5=Le Ann Rimes - These Arms Of Mine
TTITLE6=Le Ann Rimes - Nothin' New Under The Moon
TTITLE7=Le Ann Rimes - When Am I Gonna Get Over You
TTITLE8=Le Ann Rimes - Rock Me
TTITLE9=Le Ann Rimes - More Than Anyone Deserves
TTITLE10=Le Ann Rimes - Insensitive
TTITLE11=Le Ann Rimes - All The Lovin' And Hurtin'
TTITLE12=Le Ann Rimes - Sittin' On Top Of The World
TTITLE13=Le Ann Rimes - The Heart Never Forgets
TTITLE14=Le Ann Rimes - Purple Rain
EXTD=
EXTT0=
EXTT1=
EXTT2=
EXTT3=
EXTT4=
EXTT5=
EXTT6=
EXTT7=
EXTT8=
EXTT9=
EXTT10=
EXTT11=
EXTT12=
EXTT13=
EXTT14=
PLAYORDER=
